<svg width="68" height="65" viewBox="0 0 68 65" fill="none" xmlns="http://www.w3.org/2000/svg">
<path d="M0.25 64.2887V6.31C0.25 4.5825 0.82875 3.14125 1.98625 1.98625C3.14375 0.83125 4.58375 0.2525 6.30625 0.25H61.6938C63.4188 0.25 64.8588 0.82875 66.0138 1.98625C67.1688 3.14375 67.7475 4.585 67.75 6.31V46.6938C67.75 48.4188 67.1713 49.86 66.0138 51.0175C64.8563 52.175 63.4163 52.7525 61.6938 52.75H11.7888L0.25 64.2887ZM10.1875 49H61.6938C62.2688 49 62.7975 48.76 63.28 48.28C63.7625 47.8 64.0025 47.2713 64 46.6938V6.30625C64 5.73125 63.76 5.2025 63.28 4.72C62.8 4.2375 62.2713 3.9975 61.6938 4H6.30625C5.73125 4 5.2025 4.24 4.72 4.72C4.2375 5.2 3.9975 5.72875 4 6.30625V55.1688L10.1875 49Z" fill="black"/>
</svg>
